<?xml version="1.0" encoding="UTF-8" standalone="no"?>
<svg xmlns="http://www.w3.org/2000/svg" viewBox="0 0 86 94" fill-rule="evenodd" clip-rule="evenodd" stroke-linejoin="round" stroke-miterlimit="2">
  <style>
    path { fill: #03241E; }
    @media (prefers-color-scheme: dark) { path { fill: #FFFFFF; } }
  </style>
  <g transform="matrix(1,0,0,1,-98.63974,-206.497524)">
    <path d="M165.513,233.518C168.087,236.783 181.805,266.805 183.001,270.939C184.007,274.303 184.303,277.838 183.872,281.322C183.113,287.221 180.395,291.97 175.522,295.43C172.96,297.243 170.046,298.497 166.968,299.11C158.621,300.78 147.435,299.345 138.781,299.746C130.875,300.112 123.55,300.58 117.227,295.094C119.006,290.257 119.978,285.945 122.184,281.021C123.285,282.774 124.582,284.793 126.333,285.953C130.053,288.418 159.412,288.12 164.859,286.836C167.491,286.216 169.473,284.46 170.771,282.116C172.382,279.203 172.591,276.171 171.729,272.996C170.559,268.688 159.467,245.938 156.635,242.51C154.683,240.148 152.425,238.832 149.809,237.347C155.813,233.793 158.811,233.446 165.513,233.518Z"/>
    <path d="M117.227,295.094C108.961,286.718 109.711,277.418 115.107,267.725C119.97,258.99 123.174,248.481 128.106,239.982C129.451,237.65 131.13,235.527 133.088,233.68C142.014,225.284 156.927,224.091 165.513,233.518C158.811,233.446 155.813,233.793 149.809,237.347C139.293,242.14 137.298,246.45 132.74,256.659C129.128,264.749 125.368,272.715 122.184,281.021C119.978,285.945 119.006,290.257 117.227,295.094Z"/>
    <path d="M144.833,206.67C159.275,204.917 158.677,217.074 145.703,218.372C128.706,220.072 114.111,234.625 111.243,251.278C110.453,255.867 111.177,260.988 108.88,265.074C89.576,277.629 95.441,213.646 144.833,206.67Z"/>
  </g>
</svg>
